name rise38.3101peak57.3503fall81.6963.mot
datacolumns 19
datarows 14
range 7.53831400000000 7.55997600000000
endheader
time	ground_force1_vx	ground_force1_vy	ground_force1_vz	ground_force1_px	ground_force1_py	ground_force1_pz	ground_force2_vx	ground_force2_vy	ground_force2_vz	ground_force2_px	ground_force2_py	ground_force2_pz	ground_torque1_x	ground_torque1_y	ground_torque1_z	ground_torque2_x	ground_torque2_y	ground_torque2_z	
7.53831400000000	-8.39632600000000	42.11369100000000	-12.39376300000000	0.31424300000000	0.00000000000000	0.09222800000000	-49.01374100000000	793.86898499999995	-56.14130900000000	0.13096000000000	0.00000000000000	-0.07610200000000	0.00000000000000	-8.15139500000000	0.00000000000000	0.00000000000000	-21.37215400000000	0.00000000000000	
7.53998100000000	-9.18974400000000	49.34875600000000	-13.96343600000000	0.32091900000000	0.00000000000000	0.09346500000000	-49.37265500000000	790.91392199999996	-55.68750900000000	0.13037000000000	0.00000000000000	-0.07601600000000	0.00000000000000	-9.31593000000000	0.00000000000000	0.00000000000000	-21.23803000000000	0.00000000000000	
7.54164400000000	-9.81921800000000	56.67339300000000	-15.39945900000000	0.32698300000000	0.00000000000000	0.09459500000000	-49.73901700000000	787.82743300000004	-55.20727600000000	0.12979200000000	0.00000000000000	-0.07592500000000	0.00000000000000	-10.41621300000000	0.00000000000000	0.00000000000000	-21.10252100000000	0.00000000000000	
7.54331300000000	-10.26182000000000	63.99366200000000	-16.66913200000000	0.33252300000000	0.00000000000000	0.09563400000000	-50.11331000000000	784.60965499999998	-54.70091900000000	0.12922700000000	0.00000000000000	-0.07582900000000	0.00000000000000	-11.42765200000000	0.00000000000000	0.00000000000000	-20.96580700000000	0.00000000000000	
7.54498000000000	-10.50407900000000	71.23881700000000	-17.75059800000000	0.33760900000000	0.00000000000000	0.09659700000000	-50.49596500000000	781.26073299999996	-54.16878500000000	0.12867300000000	0.00000000000000	-0.07572900000000	0.00000000000000	-12.33255600000000	0.00000000000000	0.00000000000000	-20.82806300000000	0.00000000000000	
7.54664000000000	-10.54182300000000	78.36346899999999	-18.63301100000000	0.34230000000000	0.00000000000000	0.09749400000000	-50.88735000000000	777.78081199999997	-53.61126100000000	0.12813200000000	0.00000000000000	-0.07562400000000	0.00000000000000	-13.12051200000000	0.00000000000000	0.00000000000000	-20.68945300000000	0.00000000000000	
7.54830700000000	-10.37928600000000	85.34730500000001	-19.31578800000000	0.34664300000000	0.00000000000000	0.09833400000000	-51.28776800000000	774.17003799999998	-53.02877100000000	0.12760100000000	0.00000000000000	-0.07551400000000	0.00000000000000	-13.78809900000000	0.00000000000000	0.00000000000000	-20.55013400000000	0.00000000000000	
7.54997200000000	-10.02768400000000	92.19278700000000	-19.80713300000000	0.35067900000000	0.00000000000000	0.09912500000000	-51.69745200000000	770.42854799999998	-52.42177600000000	0.12708300000000	0.00000000000000	-0.07539900000000	0.00000000000000	-14.33808300000000	0.00000000000000	0.00000000000000	-20.41025000000000	0.00000000000000	
7.55163900000000	-9.50346500000000	98.92136400000000	-20.12211300000000	0.35443900000000	0.00000000000000	0.09987100000000	-52.11655900000000	766.55646700000000	-51.79077300000000	0.12657400000000	0.00000000000000	-0.07527900000000	0.00000000000000	-14.77822400000000	0.00000000000000	0.00000000000000	-20.26993600000000	0.00000000000000	
7.55331300000000	-8.82642900000000	105.56877600000000	-20.28049400000000	0.35795300000000	0.00000000000000	0.10057900000000	-52.54517000000000	762.55390399999999	-51.13629500000000	0.12607700000000	0.00000000000000	-0.07515500000000	0.00000000000000	-15.11989300000000	0.00000000000000	0.00000000000000	-20.12931600000000	0.00000000000000	
7.55497200000000	-8.01790600000000	112.18000300000000	-20.30457200000000	0.36124400000000	0.00000000000000	0.10125300000000	-52.98328000000000	758.42095099999995	-50.45890900000000	0.12559000000000	0.00000000000000	-0.07502600000000	0.00000000000000	-15.37662000000000	0.00000000000000	0.00000000000000	-19.98850000000000	0.00000000000000	
7.55664200000000	-7.09912200000000	118.80431200000000	-20.21718300000000	0.36433400000000	0.00000000000000	0.10189600000000	-53.43080000000000	754.15767500000004	-49.75921500000000	0.12511300000000	0.00000000000000	-0.07489300000000	0.00000000000000	-15.56272300000000	0.00000000000000	0.00000000000000	-19.84758600000000	0.00000000000000	
7.55831000000000	-6.08985000000000	125.49080800000000	-20.04000100000000	0.36723900000000	0.00000000000000	0.10251100000000	-53.88755000000000	749.76412200000004	-49.03784800000000	0.12464500000000	0.00000000000000	-0.07475500000000	0.00000000000000	-15.69210100000000	0.00000000000000	0.00000000000000	-19.70665900000000	0.00000000000000	
7.55997600000000	-5.00741100000000	132.28472199999999	-19.79222500000000	0.36997600000000	0.00000000000000	0.10310200000000	-54.35325700000000	745.24031100000002	-48.29547400000000	0.12418700000000	0.00000000000000	-0.07461200000000	0.00000000000000	-15.77728100000000	0.00000000000000	0.00000000000000	-19.56578800000000	0.00000000000000	
